<?xml version="1.0" encoding="UTF-8"?>
<svg id="_レイヤー_1" data-name="レイヤー_1" xmlns="http://www.w3.org/2000/svg" width="480" height="260" viewBox="0 0 480 260">
  <defs>
    <style>
      .cls-1 {
        fill: #e07578;
      }
    </style>
  </defs>
  <path class="cls-1" d="M175.79,138.58c3.65-7.31,8.63-12.93,14.93-16.87,6.3-3.94,13.33-5.91,21.09-5.91,6.64,0,12.46,1.35,17.46,4.05,5,2.7,8.86,6.24,11.56,10.63v-13.33h28.85v94.14h-28.85v-13.33c-2.81,4.39-6.72,7.93-11.73,10.63-5.01,2.7-10.83,4.05-17.46,4.05-7.65,0-14.62-2-20.92-5.99-6.3-3.99-11.28-9.67-14.93-17.04-3.66-7.36-5.48-15.88-5.48-25.56s1.83-18.16,5.48-25.48ZM234.84,147.18c-3.99-4.16-8.86-6.24-14.59-6.24s-10.6,2.05-14.59,6.16c-3.99,4.11-5.99,9.76-5.99,16.95s2,12.91,5.99,17.12c3.99,4.22,8.86,6.33,14.59,6.33s10.6-2.08,14.59-6.24c3.99-4.16,5.99-9.84,5.99-17.04s-2-12.88-5.99-17.04Z"/>
  <path class="cls-1" d="M289.59,102.77c-2.67-2.48-4-5.54-4-9.2s1.33-6.85,4-9.34c2.67-2.48,6.11-3.72,10.32-3.72s7.51,1.24,10.18,3.72c2.67,2.48,4,5.59,4,9.34s-1.33,6.72-4,9.2c-2.67,2.48-6.06,3.72-10.18,3.72s-7.65-1.24-10.32-3.72Z"/>
  <path class="cls-1" d="M412.42,206.98c-4.06-3.77-6.08-8.43-6.08-13.99s2.03-10.43,6.08-14.2c4.06-3.77,9.29-5.66,15.69-5.66s11.42,1.89,15.48,5.66c4.06,3.77,6.08,8.51,6.08,14.2s-2.03,10.22-6.08,13.99c-4.06,3.77-9.22,5.66-15.48,5.66s-11.64-1.89-15.69-5.66Z"/>
  <path class="cls-1" d="M95.35,213.4c-12.05,0-23-1.99-32.55-5.91-9.63-3.94-17.44-9.88-23.22-17.63-5.79-7.77-8.89-17.25-9.21-28.16l-.04-1.46,1.48-.02h43.46l.16,1.28c.58,5.65,2.53,9.98,5.8,12.89,3.27,2.92,7.64,4.4,12.98,4.4s9.91-1.26,13.04-3.75c3.07-2.45,4.57-5.76,4.57-10.14,0-3.65-1.19-6.58-3.63-8.96-2.57-2.49-5.78-4.58-9.55-6.21-3.86-1.66-9.47-3.6-16.66-5.74-10.56-3.26-19.29-6.57-25.97-9.83-6.83-3.34-12.78-8.32-17.68-14.8-4.96-6.56-7.48-15.2-7.48-25.68,0-8.2,1.65-15.63,4.91-22.09l1.16-2.29,1.32,2.2c.86,1.42,1.73,2.52,2.74,3.47,3.32,3.09,7.52,4.59,12.82,4.59,4.57,0,8.46-1.23,11.55-3.67,4.41-3.46,6.67-9.34,5.76-14.98-.54-3.39-2.07-6.21-4.68-8.63-.6-.56-1.3-1.09-2.26-1.72l-2.41-1.57,2.71-.95c8.06-2.83,17.21-4.26,27.18-4.26,18.18,0,33.07,4.43,44.26,13.18,11.26,8.8,17.38,21.21,18.17,36.87l.08,1.49-1.51.02h-44.3l-.02-1.43c-.29-4.81-2.03-8.54-5.3-11.32-3.28-2.78-7.58-4.19-12.77-4.19-4.42,0-8.01,1.17-10.67,3.48-2.64,2.29-3.92,5.55-3.92,9.95,0,4.77,2.2,8.39,6.73,11.08,4.84,2.88,12.55,6.03,22.91,9.38,10.56,3.57,19.24,7.03,25.83,10.29,6.73,3.33,12.63,8.22,17.54,14.55h0c4.97,6.42,7.49,14.75,7.49,24.76s-2.45,18.27-7.29,26.04c-4.83,7.77-11.93,14.03-21.1,18.62-9.12,4.56-20.03,6.88-32.42,6.88ZM33.25,163.06c.51,9.7,3.4,18.15,8.59,25.11,5.46,7.34,12.87,12.96,22.02,16.7,9.21,3.78,19.8,5.69,31.48,5.69s22.42-2.21,31.15-6.58c8.69-4.35,15.41-10.26,19.96-17.58,4.55-7.31,6.86-15.57,6.86-24.54s-2.32-17.12-6.89-23.03h0c-4.64-5.99-10.22-10.61-16.56-13.75-6.47-3.2-15.04-6.61-25.46-10.14-10.54-3.41-18.45-6.65-23.47-9.63-5.39-3.2-8.12-7.74-8.12-13.51,0-5.2,1.65-9.27,4.9-12.09,3.19-2.77,7.4-4.18,12.53-4.18,5.88,0,10.8,1.64,14.6,4.86,3.54,3,5.61,7.06,6.18,12.08h40.11c-1.04-14.08-6.75-25.3-17-33.31-10.68-8.34-24.98-12.58-42.51-12.58-8.6,0-16.55,1.09-23.67,3.26.13.11.25.22.37.33,3.04,2.83,4.91,6.28,5.55,10.26,1.07,6.64-1.61,13.57-6.81,17.66-3.61,2.83-8.08,4.27-13.3,4.27-5.97,0-10.93-1.8-14.75-5.35-.64-.6-1.23-1.24-1.79-1.96-2.37,5.53-3.57,11.78-3.57,18.6,0,9.85,2.32,17.91,6.91,23.97,4.63,6.13,10.23,10.83,16.66,13.97,6.55,3.2,15.14,6.45,25.55,9.66,7.29,2.17,13,4.14,16.96,5.85,4.09,1.77,7.59,4.05,10.4,6.78,2.98,2.9,4.49,6.6,4.49,10.99,0,5.23-1.9,9.38-5.64,12.36-3.65,2.9-8.62,4.37-14.8,4.37s-11.06-1.72-14.86-5.12c-3.56-3.16-5.77-7.68-6.58-13.44h-39.49Z"/>
  <path class="cls-1" d="M299.84,120.25c6.48,0,11.76,5.27,11.76,11.76v66.04c0,6.48-5.27,11.76-11.76,11.76s-11.76-5.27-11.76-11.76v-66.04c0-6.48,5.27-11.76,11.76-11.76M299.84,117.42c-8.06,0-14.59,6.53-14.59,14.59v66.04c0,8.06,6.53,14.59,14.59,14.59s14.59-6.53,14.59-14.59v-66.04c0-8.06-6.53-14.59-14.59-14.59h0Z"/>
  <path class="cls-1" d="M427.76,67.38c6.48,0,11.76,5.27,11.76,11.76v66.04c0,6.48-5.27,11.76-11.76,11.76s-11.76-5.27-11.76-11.76v-66.04c0-6.48,5.27-11.76,11.76-11.76M427.76,64.54c-8.06,0-14.59,6.53-14.59,14.59v66.04c0,8.06,6.53,14.59,14.59,14.59s14.59-6.53,14.59-14.59v-66.04c0-8.06-6.53-14.59-14.59-14.59h0Z"/>
  <path class="cls-1" d="M386.43,186.83v24.46h-14.68c-10.46,0-18.62-2.56-24.46-7.68-5.85-5.12-8.77-13.47-8.77-25.05v-37.45h-11.47v-23.96h11.47v-22.94h28.85v22.94h18.89v23.96h-18.89v37.79c0,2.81.67,4.84,2.02,6.07,1.35,1.24,3.6,1.86,6.75,1.86h10.29Z"/>
</svg>